# xmcd
#
# Track frame offsets:
#	225
#	2110
#	8715
#	28540
#	52053
#	69206
#	91533
#	103507
#	125231
#	142708
#	159991
#	178964
#	195789
#	218531
#	239520
#	256497
#	270399
#	285631
#	300589
#
# Disc length: 4288 seconds
#
# Revision: 1
# Processed by: cddbd v1.5.1PL0 Copyright (c) Steve Scherf et al.
# Submitted via: EasyCDDAExtractor 5.1.0
#
DISCID=f410bd13
DTITLE=LOUIS ARMSTRONG - And His All Stars
DYEAR=2001
DGENRE=Blues
TTITLE0=intro
TTITLE1=when it's sleepy time down south
TTITLE2=panama
TTITLE3=back o' town blues
TTITLE4=pale moon
TTITLE5=don't fence me in
TTITLE6=lover
TTITLE7=body and soul
TTITLE8=a song was born
TTITLE9=whispering
TTITLE10=mahogany hall stomp
TTITLE11=me and brother bill
TTITLE12=c jam blues
TTITLE13=a hundred years from today
TTITLE14=boogie woogie on st. Louis Blues
TTITLE15=blue skies
TTITLE16=rockin'chair
TTITLE17=the sheik of araby
TTITLE18=confessin'
EXTD=
EXTT0=
EXTT1=
EXTT2=
EXTT3=
EXTT4=
EXTT5=
EXTT6=
EXTT7=
EXTT8=
EXTT9=
EXTT10=
EXTT11=
EXTT12=
EXTT13=
EXTT14=
EXTT15=
EXTT16=
EXTT17=
EXTT18=
PLAYORDER=
